<svg id="Layer_1" data-name="Layer 1" xmlns="http://www.w3.org/2000/svg" viewBox="0 0 500 500"><defs><style>.cls-1{fill:#58a55d;}.cls-2{fill:#408441;}.cls-3{fill:#cde058;opacity:0.9;}.cls-4{fill:#ff5757;}.cls-5{fill:#fff;}.cls-6{fill:#ea579a;}.cls-7{fill:#fde56e;}.cls-8{fill:#fb941b;}</style></defs><title>illustration for daw</title><path class="cls-1" d="M345.39,239.77a19.51,19.51,0,0,0-36.58-9.46,19.51,19.51,0,0,0-34.14,0,19.51,19.51,0,0,0-34.14,0,19.5,19.5,0,0,0-34.13,0,19.52,19.52,0,0,0-36.59,9.46,18.61,18.61,0,0,0,.26,3H170l30,139.48H315.39l30-139.48h-.25A19.82,19.82,0,0,0,345.39,239.77Z"/><path class="cls-2" d="M206.4,230.31l15.7,152h15l3.45-151.95v0A20.22,20.22,0,0,0,207.37,229Z"/><path class="cls-2" d="M274.67,230.31l7.07,152h15.93l11.14-151.95h0a20.22,20.22,0,0,0-34.14,0Z"/><path class="cls-3" d="M312.46,192.14a46.82,46.82,0,0,0-18,3.6,48.43,48.43,0,1,0-93.92,3.13,43.74,43.74,0,1,0-6.49,84,61.36,61.36,0,0,0,104.39.76,46.81,46.81,0,1,0,14-91.47Z"/><circle class="cls-4" cx="237.08" cy="145.57" r="27.83"/><path class="cls-5" d="M219,144.08a1,1,0,0,1-1-1,16.64,16.64,0,0,1,16.62-16.62,1,1,0,0,1,0,2A14.64,14.64,0,0,0,220,143.08,1,1,0,0,1,219,144.08Z"/><path class="cls-6" d="M220.89,246.61a1.12,1.12,0,0,1-1.56.29h0a1.12,1.12,0,0,1-.29-1.56l4.28-6.23a1.12,1.12,0,0,1,1.56-.29h0a1.12,1.12,0,0,1,.29,1.56Z"/><path class="cls-1" d="M224.21,208a1.12,1.12,0,0,1-.75-1.4h0a1.11,1.11,0,0,1,1.39-.75L232.1,208a1.11,1.11,0,0,1,.76,1.39h0a1.12,1.12,0,0,1-1.4.76Z"/><path class="cls-1" d="M174.83,242.1a1.13,1.13,0,0,1-1.59,0h0a1.12,1.12,0,0,1,0-1.59l5.31-5.38a1.12,1.12,0,0,1,1.59,0h0a1.12,1.12,0,0,1,0,1.58Z"/><path class="cls-6" d="M266.06,204a1.11,1.11,0,0,1-1.56.28h0a1.11,1.11,0,0,1-.29-1.55l4.28-6.24a1.12,1.12,0,0,1,1.56-.29h0a1.12,1.12,0,0,1,.29,1.56Z"/><path class="cls-1" d="M302.41,212.42a1.12,1.12,0,0,1-.76-1.39h0a1.13,1.13,0,0,1,1.4-.76l7.25,2.15a1.12,1.12,0,0,1,.75,1.4h0a1.11,1.11,0,0,1-1.39.75Z"/><path class="cls-6" d="M298.45,246.61a1.11,1.11,0,0,1-1.55.29h0a1.12,1.12,0,0,1-.29-1.56l4.28-6.23a1.12,1.12,0,0,1,1.56-.29h0a1.12,1.12,0,0,1,.29,1.56Z"/><path class="cls-1" d="M331.68,254.78a1.13,1.13,0,0,1-.76-1.4h0a1.12,1.12,0,0,1,1.4-.75l7.25,2.15a1.11,1.11,0,0,1,.75,1.39h0a1.13,1.13,0,0,1-1.39.76Z"/><path class="cls-7" d="M353.62,238.46a1.12,1.12,0,0,1-.05,1.59h0A1.13,1.13,0,0,1,352,240l-5.16-5.53a1.13,1.13,0,0,1,.06-1.59h0a1.12,1.12,0,0,1,1.58.06Z"/><path class="cls-1" d="M199.42,274.1a1.12,1.12,0,0,1-.76-1.39h0a1.14,1.14,0,0,1,1.4-.76l7.25,2.16a1.11,1.11,0,0,1,.75,1.39h0a1.13,1.13,0,0,1-1.39.76Z"/><path class="cls-6" d="M142.77,234.68a1.1,1.1,0,0,1-1.55.28h0a1.11,1.11,0,0,1-.29-1.55l4.28-6.24a1.12,1.12,0,0,1,1.56-.29h0a1.12,1.12,0,0,1,.29,1.56Z"/><path class="cls-1" d="M276.79,267a1.11,1.11,0,0,1-.75-1.39h0a1.13,1.13,0,0,1,1.39-.76l7.26,2.15a1.12,1.12,0,0,1,.75,1.4h0a1.12,1.12,0,0,1-1.39.75Z"/><path class="cls-8" d="M192.73,206.14a1.12,1.12,0,0,1-.06,1.59h0a1.11,1.11,0,0,1-1.58-.06l-5.16-5.53a1.12,1.12,0,0,1,.06-1.59h0a1.12,1.12,0,0,1,1.58.06Z"/><path class="cls-8" d="M259.48,236.81a1.12,1.12,0,0,1-.05,1.59h0a1.13,1.13,0,0,1-1.59-.06l-5.15-5.53a1.12,1.12,0,0,1,.05-1.59h0a1.13,1.13,0,0,1,1.59.06Z"/><path class="cls-8" d="M335.32,205.43a1.11,1.11,0,0,1-.06,1.58h0a1.11,1.11,0,0,1-1.58-.06l-5.16-5.53a1.12,1.12,0,0,1,.06-1.58h0a1.11,1.11,0,0,1,1.58,0Z"/><path class="cls-8" d="M310.55,283.42a1.12,1.12,0,0,1-.06,1.58h0a1.12,1.12,0,0,1-1.58-.05l-5.16-5.54a1.11,1.11,0,0,1,.06-1.58h0a1.12,1.12,0,0,1,1.58.05Z"/><path class="cls-8" d="M280.55,172.42a1.12,1.12,0,0,1-.06,1.58h0a1.12,1.12,0,0,1-1.58-.05l-5.16-5.54a1.11,1.11,0,0,1,.06-1.58h0a1.12,1.12,0,0,1,1.58,0Z"/><path class="cls-1" d="M241.27,181.17a1.12,1.12,0,0,1-.76-1.4h0a1.12,1.12,0,0,1,1.39-.75l7.26,2.15a1.11,1.11,0,0,1,.75,1.39h0a1.13,1.13,0,0,1-1.39.76Z"/><path class="cls-6" d="M213.88,183.59a1.12,1.12,0,0,1-1.56.29h0a1.11,1.11,0,0,1-.28-1.56l4.28-6.24a1.11,1.11,0,0,1,1.56-.28h0a1.11,1.11,0,0,1,.29,1.55Z"/><path class="cls-6" d="M237.68,270.77a1.12,1.12,0,0,1-1.56.29h0a1.12,1.12,0,0,1-.29-1.56l4.29-6.24a1.11,1.11,0,0,1,1.55-.29h0a1.13,1.13,0,0,1,.3,1.56Z"/><path class="cls-1" d="M250.06,294.65a1.12,1.12,0,0,1-.76-1.39h0a1.12,1.12,0,0,1,1.4-.75l7.25,2.15a1.11,1.11,0,0,1,.75,1.39h0a1.12,1.12,0,0,1-1.39.76Z"/></svg>