<svg xmlns="http://www.w3.org/2000/svg" width="12.76" height="27.455" viewBox="0 0 12.76 27.455"><defs><style>.a{fill:#000a04;}</style></defs><g transform="translate(0)"><g transform="translate(0)"><path class="a" d="M158.159,0H155.3q-3.282,0-4.715,1.558a6.56,6.56,0,0,0-1.433,4.59V8.074A.922.922,0,0,1,148.23,9h-.988a.922.922,0,0,0-.922.922v2.887a.922.922,0,0,0,.922.922h.988a.922.922,0,0,1,.922.922V26.533a.922.922,0,0,0,.922.922h3.837a.922.922,0,0,0,.922-.922V14.649a.922.922,0,0,1,.922-.922h1.938a1.047,1.047,0,0,0,1.019-.917l.306-2.9A.812.812,0,0,0,158.192,9h-2.438a.922.922,0,0,1-.922-.922V6.631a5.177,5.177,0,0,1,.05-.825,1.6,1.6,0,0,1,.225-.575.919.919,0,0,1,.566-.392,4.035,4.035,0,0,1,1.041-.108h1.444a.922.922,0,0,0,.922-.922V.922A.921.921,0,0,0,158.159,0Z" transform="translate(-146.32)"/></g></g></svg>