<svg xmlns="http://www.w3.org/2000/svg" width="27.454" height="27.455" viewBox="0 0 27.454 27.455"><defs><style>.a{fill:#000a04;}</style></defs><g transform="translate(0)"><path class="a" d="M19.878,0H7.576A7.585,7.585,0,0,0,0,7.576v12.3a7.585,7.585,0,0,0,7.576,7.576h12.3a7.585,7.585,0,0,0,7.577-7.576V7.576A7.585,7.585,0,0,0,19.878,0Zm5.141,19.878a5.146,5.146,0,0,1-5.141,5.141H7.576a5.146,5.146,0,0,1-5.14-5.141V7.576a5.146,5.146,0,0,1,5.14-5.141h12.3a5.147,5.147,0,0,1,5.141,5.141v12.3Z"/><path class="a" d="M48.042,40.97a7.074,7.074,0,1,0,7.074,7.074A7.082,7.082,0,0,0,48.042,40.97Zm0,11.712a4.638,4.638,0,1,1,4.638-4.638A4.644,4.644,0,0,1,48.042,52.682Z" transform="translate(-34.315 -34.317)"/><path class="a" d="M120.707,28.251a1.785,1.785,0,1,0,1.263.523A1.793,1.793,0,0,0,120.707,28.251Z" transform="translate(-99.609 -23.663)"/></g></svg>